<svg width="96" height="96" xmlns="http://www.w3.org/2000/svg" xmlns:xlink="http://www.w3.org/1999/xlink" xml:space="preserve" overflow="hidden"><defs><clipPath id="clip0"><rect x="492" y="115" width="96" height="96"/></clipPath></defs><g clip-path="url(#clip0)" transform="translate(-492 -115)"><path d="M571.121 167.879C569.929 166.728 568.03 166.761 566.879 167.953 565.756 169.115 565.756 170.958 566.879 172.121L575.758 181 564.284 181C559.773 181.012 555.445 179.219 552.264 176.021L542.071 165.829 537.828 170.07 548.021 180.264C552.325 184.591 558.181 187.016 564.284 187L575.758 187 566.879 195.879C565.687 197.03 565.654 198.929 566.805 200.121 567.956 201.313 569.855 201.346 571.047 200.195 571.072 200.171 571.097 200.146 571.121 200.121L585.121 186.121C586.292 184.949 586.292 183.051 585.121 181.879Z" fill="#00B0F0"/><path d="M497 145 505.716 145C510.227 144.988 514.555 146.781 517.736 149.979L527.929 160.171 532.172 155.93 521.979 145.736C517.675 141.409 511.819 138.984 505.716 139L497 139C495.343 139 494 140.343 494 142 494 143.657 495.343 145 497 145Z" fill="#00B0F0"/><path d="M564.284 145 575.758 145 566.879 153.879C565.687 155.03 565.654 156.929 566.805 158.121 567.956 159.313 569.855 159.346 571.047 158.195 571.072 158.171 571.097 158.146 571.121 158.121L585.121 144.121C586.292 142.949 586.292 141.051 585.121 139.879L571.121 125.879C569.929 124.728 568.03 124.761 566.879 125.953 565.756 127.115 565.756 128.958 566.879 130.121L575.758 139 564.284 139C558.181 138.984 552.325 141.409 548.021 145.736L517.736 176.021C514.555 179.219 510.227 181.012 505.716 181L497 181C495.343 181 494 182.343 494 184 494 185.657 495.343 187 497 187L505.716 187C511.819 187.016 517.675 184.591 521.979 180.264L552.264 149.979C555.445 146.781 559.773 144.988 564.284 145Z" fill="#00B0F0"/></g></svg>